<?xml version="1.0" standalone="no"?>
<!DOCTYPE svg PUBLIC "-//W3C//DTD SVG 20010904//EN"
 "http://www.w3.org/TR/2001/REC-SVG-20010904/DTD/svg10.dtd">
<svg version="1.0" xmlns="http://www.w3.org/2000/svg"
 width="512.000000pt" height="512.000000pt" viewBox="0 0 512.000000 512.000000"
 preserveAspectRatio="xMidYMid meet">

<g transform="translate(0.000000,512.000000) scale(0.100000,-0.100000)"
fill="#cfcfbd" stroke="none">
<path d="M1035 4786 c-37 -16 -82 -68 -91 -102 -4 -14 -4 -42 -1 -62 5 -34
607 -1236 664 -1325 46 -73 62 -77 291 -77 111 0 202 -1 202 -3 0 -1 -7 -34
-15 -72 -8 -39 -15 -107 -15 -152 l0 -82 -85 -40 c-389 -182 -666 -539 -752
-969 -24 -120 -24 -384 0 -504 108 -540 518 -956 1057 -1073 119 -26 344 -31
475 -10 591 92 1047 551 1134 1142 16 103 13 302 -4 411 -52 317 -223 616
-471 821 -91 75 -226 159 -315 196 l-47 19 -4 141 c-3 77 -9 148 -13 158 -7
16 5 17 176 17 164 0 187 2 225 20 23 12 49 32 58 45 8 13 164 315 346 672
355 699 351 689 311 763 -10 19 -36 45 -57 57 -39 23 -41 23 -497 23 -491 0
-498 -1 -544 -51 -11 -13 -128 -234 -259 -491 -131 -258 -241 -468 -244 -468
-3 0 -112 205 -241 456 -129 251 -242 469 -251 485 -10 15 -35 37 -57 49 -39
19 -57 20 -493 20 -354 -1 -460 -4 -483 -14z m1659 -1589 c33 -49 63 -171 48
-194 -6 -9 -30 -10 -99 -3 -51 5 -128 6 -173 2 l-82 -8 4 61 c3 37 15 80 32
113 l26 52 115 0 c108 0 115 -1 129 -23z m-6 -990 l123 -253 222 -33 c122 -18
249 -38 281 -44 l60 -10 -205 -197 -204 -197 47 -279 c26 -153 46 -279 45
-280 -1 -2 -110 55 -242 126 -132 71 -246 129 -253 130 -7 0 -121 -57 -253
-126 -132 -69 -243 -124 -246 -120 -3 3 16 128 41 278 l47 273 -203 197 c-138
133 -198 198 -188 201 8 3 135 22 282 43 l267 37 123 254 c68 139 125 253 128
253 3 0 60 -114 128 -253z"/>
</g>
</svg>
